<mxfile host="65bd71144e">
    <diagram id="1C8SSKWIOxe83IKbhR6K" name="Page-1">
        <mxGraphModel dx="1349" dy="517" grid="1" gridSize="10" guides="1" tooltips="1" connect="1" arrows="1" fold="1" page="1" pageScale="1" pageWidth="850" pageHeight="1100" math="0" shadow="0">
            <root>
                <mxCell id="0"/>
                <mxCell id="1" parent="0"/>
                <mxCell id="2" value="Comuna" style="rounded=1;whiteSpace=wrap;html=1;fillColor=#FF99FF;fontColor=#000000;strokeColor=#FFCCE6;gradientColor=#FF9933;gradientDirection=north;glass=0;shadow=0;" parent="1" vertex="1">
                    <mxGeometry x="360" y="560" width="120" height="40" as="geometry"/>
                </mxCell>
                <mxCell id="3" value="Entretencion" style="rounded=1;whiteSpace=wrap;html=1;fillColor=#FF99FF;strokeColor=#FFCCE6;fontColor=#000000;gradientColor=#FF9933;gradientDirection=north;glass=0;shadow=0;" parent="1" vertex="1">
                    <mxGeometry x="480" y="845" width="80" height="40" as="geometry"/>
                </mxCell>
                <mxCell id="5" value="Educacion" style="rounded=1;whiteSpace=wrap;html=1;fillColor=#FF99FF;strokeColor=#FFCCE6;fontColor=#000000;gradientColor=#FF9933;gradientDirection=north;glass=0;shadow=0;" parent="1" vertex="1">
                    <mxGeometry x="260" y="850" width="80" height="40" as="geometry"/>
                </mxCell>
                <mxCell id="6" value="Salud" style="rounded=1;whiteSpace=wrap;html=1;fillColor=#FF99FF;strokeColor=#FFCCE6;fontColor=#000000;gradientColor=#FF9933;gradientDirection=north;glass=0;shadow=0;" parent="1" vertex="1">
                    <mxGeometry x="70" y="850" width="80" height="40" as="geometry"/>
                </mxCell>
                <mxCell id="7" value="Seguridad" style="rounded=1;whiteSpace=wrap;html=1;fillColor=#FF99FF;strokeColor=#FFCCE6;fontColor=#000000;gradientColor=#FF9933;gradientDirection=north;glass=0;shadow=0;" parent="1" vertex="1">
                    <mxGeometry x="660" y="845" width="80" height="40" as="geometry"/>
                </mxCell>
                <mxCell id="9" value="&lt;div style=&quot;text-align: justify;&quot;&gt;&lt;span style=&quot;background-color: initial;&quot;&gt;Region&lt;/span&gt;&lt;/div&gt;" style="rounded=1;whiteSpace=wrap;html=1;fillColor=#FF99FF;strokeColor=#FFCCE6;fontColor=#000000;gradientColor=#FF9933;gradientDirection=north;glass=0;shadow=0;" parent="1" vertex="1">
                    <mxGeometry x="360" y="310" width="120" height="40" as="geometry"/>
                </mxCell>
                <mxCell id="14" value="Pais" style="rounded=1;whiteSpace=wrap;html=1;fillColor=#FF99FF;strokeColor=#FFCCE6;fontColor=#000000;gradientColor=#FF9933;gradientDirection=north;glass=0;shadow=0;" parent="1" vertex="1">
                    <mxGeometry x="40" y="310" width="120" height="40" as="geometry"/>
                </mxCell>
                <mxCell id="15" value="" style="endArrow=none;html=1;entryX=1;entryY=0.5;entryDx=0;entryDy=0;exitX=0;exitY=0.5;exitDx=0;exitDy=0;startArrow=none;entryPerimeter=0;" parent="1" source="52" target="14" edge="1">
                    <mxGeometry width="50" height="50" relative="1" as="geometry">
                        <mxPoint x="375" y="240" as="sourcePoint"/>
                        <mxPoint x="425" y="190" as="targetPoint"/>
                    </mxGeometry>
                </mxCell>
                <mxCell id="16" value="" style="endArrow=none;html=1;exitX=0.5;exitY=0;exitDx=0;exitDy=0;startArrow=none;" parent="1" source="55" target="9" edge="1">
                    <mxGeometry width="50" height="50" relative="1" as="geometry">
                        <mxPoint x="414.71" y="520" as="sourcePoint"/>
                        <mxPoint x="415" y="350" as="targetPoint"/>
                    </mxGeometry>
                </mxCell>
                <mxCell id="19" value="Nombre_pais" style="ellipse;whiteSpace=wrap;html=1;fillColor=#330066;strokeColor=#6666FF;gradientColor=#6666FF;" parent="1" vertex="1">
                    <mxGeometry x="57.5" y="420" width="85" height="40" as="geometry"/>
                </mxCell>
                <mxCell id="20" value="" style="endArrow=none;html=1;entryX=0.5;entryY=0;entryDx=0;entryDy=0;exitX=0.5;exitY=1;exitDx=0;exitDy=0;" parent="1" source="14" target="19" edge="1">
                    <mxGeometry width="50" height="50" relative="1" as="geometry">
                        <mxPoint x="255" y="100" as="sourcePoint"/>
                        <mxPoint x="305" y="50" as="targetPoint"/>
                    </mxGeometry>
                </mxCell>
                <mxCell id="22" value="Nombre&lt;br&gt;region" style="ellipse;whiteSpace=wrap;html=1;fillColor=#330066;gradientColor=#6666FF;strokeColor=#6666FF;gradientDirection=south;" parent="1" vertex="1">
                    <mxGeometry x="540" y="310" width="80" height="40" as="geometry"/>
                </mxCell>
                <mxCell id="23" value="" style="endArrow=none;html=1;entryX=0;entryY=0.5;entryDx=0;entryDy=0;exitX=1;exitY=0.5;exitDx=0;exitDy=0;" parent="1" source="9" target="22" edge="1">
                    <mxGeometry width="50" height="50" relative="1" as="geometry">
                        <mxPoint x="475" y="400" as="sourcePoint"/>
                        <mxPoint x="525" y="350" as="targetPoint"/>
                    </mxGeometry>
                </mxCell>
                <mxCell id="36" value="proporcionan" style="rhombus;whiteSpace=wrap;html=1;rounded=1;shadow=0;glass=0;strokeColor=#FFCCE6;fontFamily=Helvetica;fontSize=12;fontColor=#000000;fillColor=#4FFFA7;gradientColor=#2BFFF8;gradientDirection=north;" parent="1" vertex="1">
                    <mxGeometry x="70" y="640" width="80" height="80" as="geometry"/>
                </mxCell>
                <mxCell id="39" value="" style="endArrow=none;html=1;fontFamily=Helvetica;fontSize=12;fontColor=#000000;entryX=0.5;entryY=1;entryDx=0;entryDy=0;exitX=0.5;exitY=0;exitDx=0;exitDy=0;" parent="1" source="6" target="36" edge="1">
                    <mxGeometry width="50" height="50" relative="1" as="geometry">
                        <mxPoint x="200" y="828.84" as="sourcePoint"/>
                        <mxPoint x="200.16000000000008" y="755.0000000000001" as="targetPoint"/>
                    </mxGeometry>
                </mxCell>
                <mxCell id="44" value="" style="endArrow=none;html=1;fontFamily=Helvetica;fontSize=12;fontColor=#000000;exitX=0.495;exitY=0.053;exitDx=0;exitDy=0;exitPerimeter=0;" parent="1" source="36" edge="1">
                    <mxGeometry width="50" height="50" relative="1" as="geometry">
                        <mxPoint x="420" y="650" as="sourcePoint"/>
                        <mxPoint x="420" y="600" as="targetPoint"/>
                    </mxGeometry>
                </mxCell>
                <mxCell id="46" value="1" style="text;html=1;align=center;verticalAlign=middle;resizable=0;points=[];autosize=1;strokeColor=none;fillColor=none;" parent="1" vertex="1">
                    <mxGeometry x="325" y="640" width="30" height="30" as="geometry"/>
                </mxCell>
                <mxCell id="47" value="1" style="text;html=1;align=center;verticalAlign=middle;resizable=0;points=[];autosize=1;strokeColor=none;fillColor=none;" parent="1" vertex="1">
                    <mxGeometry x="530" y="630" width="30" height="30" as="geometry"/>
                </mxCell>
                <mxCell id="48" value="N" style="text;html=1;align=center;verticalAlign=middle;resizable=0;points=[];autosize=1;strokeColor=none;fillColor=none;" parent="1" vertex="1">
                    <mxGeometry x="427.5" y="450" width="30" height="30" as="geometry"/>
                </mxCell>
                <mxCell id="49" value="N" style="text;html=1;align=center;verticalAlign=middle;resizable=0;points=[];autosize=1;strokeColor=none;fillColor=none;" parent="1" vertex="1">
                    <mxGeometry x="285" y="290" width="30" height="30" as="geometry"/>
                </mxCell>
                <mxCell id="50" value="1&lt;span style=&quot;color: rgba(0, 0, 0, 0); font-family: monospace; font-size: 0px; text-align: start;&quot;&gt;%3CmxGraphModel%3E%3Croot%3E%3CmxCell%20id%3D%220%22%2F%3E%3CmxCell%20id%3D%221%22%20parent%3D%220%22%2F%3E%3CmxCell%20id%3D%222%22%20value%3D%22N%22%20style%3D%22text%3Bhtml%3D1%3Balign%3Dcenter%3BverticalAlign%3Dmiddle%3Bresizable%3D0%3Bpoints%3D%5B%5D%3Bautosize%3D1%3BstrokeColor%3Dnone%3BfillColor%3Dnone%3B%22%20vertex%3D%221%22%20parent%3D%221%22%3E%3CmxGeometry%20x%3D%22460%22%20y%3D%22530%22%20width%3D%2230%22%20height%3D%2230%22%20as%3D%22geometry%22%2F%3E%3C%2FmxCell%3E%3C%2Froot%3E%3C%2FmxGraphModel%3E&lt;/span&gt;" style="text;html=1;align=center;verticalAlign=middle;resizable=0;points=[];autosize=1;strokeColor=none;fillColor=none;" parent="1" vertex="1">
                    <mxGeometry x="425" y="380" width="30" height="30" as="geometry"/>
                </mxCell>
                <mxCell id="51" value="1&lt;span style=&quot;color: rgba(0, 0, 0, 0); font-family: monospace; font-size: 0px; text-align: start;&quot;&gt;%3CmxGraphModel%3E%3Croot%3E%3CmxCell%20id%3D%220%22%2F%3E%3CmxCell%20id%3D%221%22%20parent%3D%220%22%2F%3E%3CmxCell%20id%3D%222%22%20value%3D%22N%22%20style%3D%22text%3Bhtml%3D1%3Balign%3Dcenter%3BverticalAlign%3Dmiddle%3Bresizable%3D0%3Bpoints%3D%5B%5D%3Bautosize%3D1%3BstrokeColor%3Dnone%3BfillColor%3Dnone%3B%22%20vertex%3D%221%22%20parent%3D%221%22%3E%3CmxGeometry%20x%3D%22460%22%20y%3D%22530%22%20width%3D%2230%22%20height%3D%2230%22%20as%3D%22geometry%22%2F%3E%3C%2FmxCell%3E%3C%2Froot%3E%3C%2FmxGraphModel%3E&lt;/span&gt;" style="text;html=1;align=center;verticalAlign=middle;resizable=0;points=[];autosize=1;strokeColor=none;fillColor=none;" parent="1" vertex="1">
                    <mxGeometry x="205" y="290" width="30" height="30" as="geometry"/>
                </mxCell>
                <mxCell id="53" value="" style="endArrow=none;html=1;entryX=1;entryY=0.5;entryDx=0;entryDy=0;exitX=0;exitY=0.5;exitDx=0;exitDy=0;" parent="1" source="9" target="52" edge="1">
                    <mxGeometry width="50" height="50" relative="1" as="geometry">
                        <mxPoint x="360" y="330" as="sourcePoint"/>
                        <mxPoint x="415" y="140" as="targetPoint"/>
                    </mxGeometry>
                </mxCell>
                <mxCell id="52" value="Contiene" style="rhombus;whiteSpace=wrap;html=1;rounded=1;shadow=0;glass=0;strokeColor=#FFCCE6;fontFamily=Helvetica;fontSize=12;fontColor=#000000;fillColor=#99FF99;gradientColor=#66FFFF;gradientDirection=north;" parent="1" vertex="1">
                    <mxGeometry x="220" y="290" width="80" height="80" as="geometry"/>
                </mxCell>
                <mxCell id="57" value="" style="endArrow=none;html=1;exitX=0.5;exitY=0;exitDx=0;exitDy=0;" parent="1" source="2" target="55" edge="1">
                    <mxGeometry width="50" height="50" relative="1" as="geometry">
                        <mxPoint x="415" y="560" as="sourcePoint"/>
                        <mxPoint x="415" y="350" as="targetPoint"/>
                    </mxGeometry>
                </mxCell>
                <mxCell id="55" value="Se_divide" style="rhombus;whiteSpace=wrap;html=1;rounded=1;shadow=0;glass=0;strokeColor=#FFCCE6;fontFamily=Helvetica;fontSize=12;fontColor=#000000;fillColor=#99FF99;gradientColor=#66FFFF;gradientDirection=north;" parent="1" vertex="1">
                    <mxGeometry x="380" y="390" width="80" height="80" as="geometry"/>
                </mxCell>
                <mxCell id="58" value="Nombre&lt;br&gt;comuna" style="ellipse;whiteSpace=wrap;html=1;fillColor=#330066;gradientColor=#6666FF;strokeColor=#6666FF;gradientDirection=south;" parent="1" vertex="1">
                    <mxGeometry x="520" y="560" width="80" height="40" as="geometry"/>
                </mxCell>
                <mxCell id="68" value="" style="endArrow=none;html=1;fontFamily=Helvetica;fontSize=12;fontColor=#000000;entryX=0;entryY=0.5;entryDx=0;entryDy=0;exitX=1;exitY=0.5;exitDx=0;exitDy=0;" parent="1" source="2" target="58" edge="1">
                    <mxGeometry width="50" height="50" relative="1" as="geometry">
                        <mxPoint x="485.04999999999984" y="559.9999999999999" as="sourcePoint"/>
                        <mxPoint x="515.0000000000001" y="505.12" as="targetPoint"/>
                    </mxGeometry>
                </mxCell>
                <mxCell id="x95TI5AufknZbn7BU47D-86" value="imparten" style="rhombus;whiteSpace=wrap;html=1;rounded=1;shadow=0;glass=0;strokeColor=#FFCCE6;fontFamily=Helvetica;fontSize=12;fontColor=#000000;fillColor=#4FFFA7;gradientColor=#2BFFF8;gradientDirection=north;" parent="1" vertex="1">
                    <mxGeometry x="260" y="640" width="80" height="80" as="geometry"/>
                </mxCell>
                <mxCell id="x95TI5AufknZbn7BU47D-87" value="poseen" style="rhombus;whiteSpace=wrap;html=1;rounded=1;shadow=0;glass=0;strokeColor=#FFCCE6;fontFamily=Helvetica;fontSize=12;fontColor=#000000;fillColor=#4FFFA7;gradientColor=#2BFFF8;gradientDirection=north;" parent="1" vertex="1">
                    <mxGeometry x="480" y="635" width="80" height="80" as="geometry"/>
                </mxCell>
                <mxCell id="x95TI5AufknZbn7BU47D-88" value="garantizan" style="rhombus;whiteSpace=wrap;html=1;rounded=1;shadow=0;glass=0;strokeColor=#FFCCE6;fontFamily=Helvetica;fontSize=12;fontColor=#000000;fillColor=#4FFFA7;gradientColor=#2BFFF8;gradientDirection=north;" parent="1" vertex="1">
                    <mxGeometry x="660" y="635" width="80" height="80" as="geometry"/>
                </mxCell>
                <mxCell id="x95TI5AufknZbn7BU47D-89" value="" style="endArrow=none;html=1;fontFamily=Helvetica;fontSize=12;fontColor=#000000;exitX=0.5;exitY=0;exitDx=0;exitDy=0;" parent="1" source="x95TI5AufknZbn7BU47D-86" edge="1">
                    <mxGeometry width="50" height="50" relative="1" as="geometry">
                        <mxPoint x="342" y="659" as="sourcePoint"/>
                        <mxPoint x="420" y="600" as="targetPoint"/>
                    </mxGeometry>
                </mxCell>
                <mxCell id="x95TI5AufknZbn7BU47D-90" value="" style="endArrow=none;html=1;fontFamily=Helvetica;fontSize=12;fontColor=#000000;entryX=0.5;entryY=1;entryDx=0;entryDy=0;exitX=0.5;exitY=0;exitDx=0;exitDy=0;" parent="1" source="x95TI5AufknZbn7BU47D-87" target="2" edge="1">
                    <mxGeometry width="50" height="50" relative="1" as="geometry">
                        <mxPoint x="352" y="669" as="sourcePoint"/>
                        <mxPoint x="440" y="620" as="targetPoint"/>
                    </mxGeometry>
                </mxCell>
                <mxCell id="x95TI5AufknZbn7BU47D-92" value="" style="endArrow=none;html=1;fontFamily=Helvetica;fontSize=12;fontColor=#000000;exitX=0.5;exitY=0;exitDx=0;exitDy=0;" parent="1" source="x95TI5AufknZbn7BU47D-88" edge="1">
                    <mxGeometry width="50" height="50" relative="1" as="geometry">
                        <mxPoint x="372" y="689" as="sourcePoint"/>
                        <mxPoint x="420" y="600" as="targetPoint"/>
                    </mxGeometry>
                </mxCell>
                <mxCell id="x95TI5AufknZbn7BU47D-93" value="" style="endArrow=none;html=1;fontFamily=Helvetica;fontSize=12;fontColor=#000000;entryX=0.5;entryY=1;entryDx=0;entryDy=0;exitX=0.5;exitY=0;exitDx=0;exitDy=0;" parent="1" source="5" target="x95TI5AufknZbn7BU47D-86" edge="1">
                    <mxGeometry width="50" height="50" relative="1" as="geometry">
                        <mxPoint x="100" y="855" as="sourcePoint"/>
                        <mxPoint x="180" y="730" as="targetPoint"/>
                    </mxGeometry>
                </mxCell>
                <mxCell id="x95TI5AufknZbn7BU47D-94" value="" style="endArrow=none;html=1;fontFamily=Helvetica;fontSize=12;fontColor=#000000;entryX=0.5;entryY=1;entryDx=0;entryDy=0;exitX=0.5;exitY=0;exitDx=0;exitDy=0;" parent="1" source="3" target="x95TI5AufknZbn7BU47D-87" edge="1">
                    <mxGeometry width="50" height="50" relative="1" as="geometry">
                        <mxPoint x="380" y="855" as="sourcePoint"/>
                        <mxPoint x="378" y="725" as="targetPoint"/>
                    </mxGeometry>
                </mxCell>
                <mxCell id="x95TI5AufknZbn7BU47D-95" value="" style="endArrow=none;html=1;fontFamily=Helvetica;fontSize=12;fontColor=#000000;entryX=0.5;entryY=1;entryDx=0;entryDy=0;exitX=0.5;exitY=0;exitDx=0;exitDy=0;" parent="1" source="7" target="x95TI5AufknZbn7BU47D-88" edge="1">
                    <mxGeometry width="50" height="50" relative="1" as="geometry">
                        <mxPoint x="600" y="855" as="sourcePoint"/>
                        <mxPoint x="555" y="725" as="targetPoint"/>
                    </mxGeometry>
                </mxCell>
                <mxCell id="x95TI5AufknZbn7BU47D-96" value="1" style="text;html=1;align=center;verticalAlign=middle;resizable=0;points=[];autosize=1;strokeColor=none;fillColor=none;" parent="1" vertex="1">
                    <mxGeometry x="710" y="630" width="30" height="30" as="geometry"/>
                </mxCell>
                <mxCell id="x95TI5AufknZbn7BU47D-97" value="1" style="text;html=1;align=center;verticalAlign=middle;resizable=0;points=[];autosize=1;strokeColor=none;fillColor=none;" parent="1" vertex="1">
                    <mxGeometry x="130" y="640" width="30" height="30" as="geometry"/>
                </mxCell>
                <mxCell id="x95TI5AufknZbn7BU47D-98" value="&lt;div&gt;Centros&lt;/div&gt;&lt;div&gt;entretencion&lt;br&gt;&lt;/div&gt;" style="rounded=1;whiteSpace=wrap;html=1;fillColor=#FF99FF;strokeColor=#FFCCE6;fontColor=#000000;gradientColor=#FF9933;gradientDirection=north;glass=0;shadow=0;" parent="1" vertex="1">
                    <mxGeometry x="480" y="1070" width="80" height="40" as="geometry"/>
                </mxCell>
                <mxCell id="x95TI5AufknZbn7BU47D-99" value="&lt;div&gt;Centros&lt;/div&gt;&lt;div&gt;educacionales&lt;/div&gt;" style="rounded=1;whiteSpace=wrap;html=1;fillColor=#FF99FF;strokeColor=#FFCCE6;fontColor=#000000;gradientColor=#FF9933;gradientDirection=north;glass=0;shadow=0;" parent="1" vertex="1">
                    <mxGeometry x="260" y="1075" width="80" height="40" as="geometry"/>
                </mxCell>
                <mxCell id="x95TI5AufknZbn7BU47D-100" value="&lt;div&gt;Centros&lt;/div&gt;&lt;div&gt;salud&lt;br&gt;&lt;/div&gt;" style="rounded=1;whiteSpace=wrap;html=1;fillColor=#FF99FF;strokeColor=#FFCCE6;fontColor=#000000;gradientColor=#FF9933;gradientDirection=north;glass=0;shadow=0;" parent="1" vertex="1">
                    <mxGeometry x="70" y="1075" width="80" height="40" as="geometry"/>
                </mxCell>
                <mxCell id="x95TI5AufknZbn7BU47D-101" value="&lt;div&gt;Centros&lt;/div&gt;&lt;div&gt;seguridad&lt;br&gt;&lt;/div&gt;" style="rounded=1;whiteSpace=wrap;html=1;fillColor=#FF99FF;strokeColor=#FFCCE6;fontColor=#000000;gradientColor=#FF9933;gradientDirection=north;glass=0;shadow=0;" parent="1" vertex="1">
                    <mxGeometry x="660" y="1070" width="80" height="40" as="geometry"/>
                </mxCell>
                <mxCell id="x95TI5AufknZbn7BU47D-102" value="mediante" style="rhombus;whiteSpace=wrap;html=1;rounded=1;shadow=0;glass=0;strokeColor=#FFCCE6;fontFamily=Helvetica;fontSize=12;fontColor=#000000;fillColor=#4FFFA7;gradientColor=#2BFFF8;gradientDirection=north;" parent="1" vertex="1">
                    <mxGeometry x="70" y="930" width="80" height="80" as="geometry"/>
                </mxCell>
                <mxCell id="x95TI5AufknZbn7BU47D-103" value="" style="endArrow=none;html=1;fontFamily=Helvetica;fontSize=12;fontColor=#000000;entryX=0.5;entryY=1;entryDx=0;entryDy=0;exitX=0.5;exitY=0;exitDx=0;exitDy=0;" parent="1" source="x95TI5AufknZbn7BU47D-100" target="x95TI5AufknZbn7BU47D-102" edge="1">
                    <mxGeometry width="50" height="50" relative="1" as="geometry">
                        <mxPoint x="200" y="1118.8400000000001" as="sourcePoint"/>
                        <mxPoint x="200.16000000000008" y="1045" as="targetPoint"/>
                    </mxGeometry>
                </mxCell>
                <mxCell id="x95TI5AufknZbn7BU47D-104" value="N" style="text;html=1;align=center;verticalAlign=middle;resizable=0;points=[];autosize=1;strokeColor=none;fillColor=none;" parent="1" vertex="1">
                    <mxGeometry x="315" y="980" width="30" height="30" as="geometry"/>
                </mxCell>
                <mxCell id="x95TI5AufknZbn7BU47D-105" value="mediante" style="rhombus;whiteSpace=wrap;html=1;rounded=1;shadow=0;glass=0;strokeColor=#FFCCE6;fontFamily=Helvetica;fontSize=12;fontColor=#000000;fillColor=#4FFFA7;gradientColor=#2BFFF8;gradientDirection=north;" parent="1" vertex="1">
                    <mxGeometry x="260" y="930" width="80" height="80" as="geometry"/>
                </mxCell>
                <mxCell id="x95TI5AufknZbn7BU47D-106" value="mediante" style="rhombus;whiteSpace=wrap;html=1;rounded=1;shadow=0;glass=0;strokeColor=#FFCCE6;fontFamily=Helvetica;fontSize=12;fontColor=#000000;fillColor=#4FFFA7;gradientColor=#2BFFF8;gradientDirection=north;" parent="1" vertex="1">
                    <mxGeometry x="480" y="925" width="80" height="80" as="geometry"/>
                </mxCell>
                <mxCell id="x95TI5AufknZbn7BU47D-107" value="mediante" style="rhombus;whiteSpace=wrap;html=1;rounded=1;shadow=0;glass=0;strokeColor=#FFCCE6;fontFamily=Helvetica;fontSize=12;fontColor=#000000;fillColor=#4FFFA7;gradientColor=#2BFFF8;gradientDirection=north;" parent="1" vertex="1">
                    <mxGeometry x="660" y="925" width="80" height="80" as="geometry"/>
                </mxCell>
                <mxCell id="x95TI5AufknZbn7BU47D-108" value="" style="endArrow=none;html=1;fontFamily=Helvetica;fontSize=12;fontColor=#000000;entryX=0.5;entryY=1;entryDx=0;entryDy=0;exitX=0.5;exitY=0;exitDx=0;exitDy=0;" parent="1" source="x95TI5AufknZbn7BU47D-99" target="x95TI5AufknZbn7BU47D-105" edge="1">
                    <mxGeometry width="50" height="50" relative="1" as="geometry">
                        <mxPoint x="100" y="1145" as="sourcePoint"/>
                        <mxPoint x="180" y="1020" as="targetPoint"/>
                    </mxGeometry>
                </mxCell>
                <mxCell id="x95TI5AufknZbn7BU47D-109" value="" style="endArrow=none;html=1;fontFamily=Helvetica;fontSize=12;fontColor=#000000;entryX=0.5;entryY=1;entryDx=0;entryDy=0;exitX=0.5;exitY=0;exitDx=0;exitDy=0;" parent="1" source="x95TI5AufknZbn7BU47D-98" target="x95TI5AufknZbn7BU47D-106" edge="1">
                    <mxGeometry width="50" height="50" relative="1" as="geometry">
                        <mxPoint x="380" y="1145" as="sourcePoint"/>
                        <mxPoint x="378" y="1015" as="targetPoint"/>
                    </mxGeometry>
                </mxCell>
                <mxCell id="x95TI5AufknZbn7BU47D-110" value="" style="endArrow=none;html=1;fontFamily=Helvetica;fontSize=12;fontColor=#000000;entryX=0.5;entryY=1;entryDx=0;entryDy=0;exitX=0.5;exitY=0;exitDx=0;exitDy=0;" parent="1" source="x95TI5AufknZbn7BU47D-101" target="x95TI5AufknZbn7BU47D-107" edge="1">
                    <mxGeometry width="50" height="50" relative="1" as="geometry">
                        <mxPoint x="600" y="1145" as="sourcePoint"/>
                        <mxPoint x="555" y="1015" as="targetPoint"/>
                    </mxGeometry>
                </mxCell>
                <mxCell id="x95TI5AufknZbn7BU47D-111" value="N" style="text;html=1;align=center;verticalAlign=middle;resizable=0;points=[];autosize=1;strokeColor=none;fillColor=none;" parent="1" vertex="1">
                    <mxGeometry x="720" y="975" width="30" height="30" as="geometry"/>
                </mxCell>
                <mxCell id="x95TI5AufknZbn7BU47D-112" value="N" style="text;html=1;align=center;verticalAlign=middle;resizable=0;points=[];autosize=1;strokeColor=none;fillColor=none;" parent="1" vertex="1">
                    <mxGeometry x="130" y="980" width="30" height="30" as="geometry"/>
                </mxCell>
                <mxCell id="x95TI5AufknZbn7BU47D-113" value="" style="endArrow=none;html=1;fontFamily=Helvetica;fontSize=12;fontColor=#000000;entryX=0.5;entryY=1;entryDx=0;entryDy=0;exitX=0.5;exitY=0;exitDx=0;exitDy=0;" parent="1" source="x95TI5AufknZbn7BU47D-107" target="7" edge="1">
                    <mxGeometry width="50" height="50" relative="1" as="geometry">
                        <mxPoint x="710" y="855" as="sourcePoint"/>
                        <mxPoint x="710" y="725" as="targetPoint"/>
                    </mxGeometry>
                </mxCell>
                <mxCell id="x95TI5AufknZbn7BU47D-114" value="" style="endArrow=none;html=1;fontFamily=Helvetica;fontSize=12;fontColor=#000000;entryX=0.5;entryY=1;entryDx=0;entryDy=0;exitX=0.5;exitY=0;exitDx=0;exitDy=0;" parent="1" source="x95TI5AufknZbn7BU47D-102" target="6" edge="1">
                    <mxGeometry width="50" height="50" relative="1" as="geometry">
                        <mxPoint x="500" y="940" as="sourcePoint"/>
                        <mxPoint x="500" y="900" as="targetPoint"/>
                    </mxGeometry>
                </mxCell>
                <mxCell id="x95TI5AufknZbn7BU47D-115" value="" style="endArrow=none;html=1;fontFamily=Helvetica;fontSize=12;fontColor=#000000;entryX=0.5;entryY=1;entryDx=0;entryDy=0;exitX=0.5;exitY=0;exitDx=0;exitDy=0;" parent="1" source="x95TI5AufknZbn7BU47D-105" target="5" edge="1">
                    <mxGeometry width="50" height="50" relative="1" as="geometry">
                        <mxPoint x="570" y="950" as="sourcePoint"/>
                        <mxPoint x="570" y="910" as="targetPoint"/>
                    </mxGeometry>
                </mxCell>
                <mxCell id="x95TI5AufknZbn7BU47D-116" value="" style="endArrow=none;html=1;fontFamily=Helvetica;fontSize=12;fontColor=#000000;entryX=0.5;entryY=1;entryDx=0;entryDy=0;exitX=0.5;exitY=0;exitDx=0;exitDy=0;" parent="1" source="x95TI5AufknZbn7BU47D-106" target="3" edge="1">
                    <mxGeometry width="50" height="50" relative="1" as="geometry">
                        <mxPoint x="675" y="955" as="sourcePoint"/>
                        <mxPoint x="675" y="915" as="targetPoint"/>
                    </mxGeometry>
                </mxCell>
                <mxCell id="x95TI5AufknZbn7BU47D-118" value="N" style="text;html=1;align=center;verticalAlign=middle;resizable=0;points=[];autosize=1;strokeColor=none;fillColor=none;" parent="1" vertex="1">
                    <mxGeometry x="530" y="980" width="30" height="30" as="geometry"/>
                </mxCell>
                <mxCell id="x95TI5AufknZbn7BU47D-120" value="N" style="text;html=1;align=center;verticalAlign=middle;resizable=0;points=[];autosize=1;strokeColor=none;fillColor=none;" parent="1" vertex="1">
                    <mxGeometry x="130" y="690" width="30" height="30" as="geometry"/>
                </mxCell>
                <mxCell id="x95TI5AufknZbn7BU47D-121" value="N" style="text;html=1;align=center;verticalAlign=middle;resizable=0;points=[];autosize=1;strokeColor=none;fillColor=none;" parent="1" vertex="1">
                    <mxGeometry x="315" y="690" width="30" height="30" as="geometry"/>
                </mxCell>
                <mxCell id="x95TI5AufknZbn7BU47D-122" value="N" style="text;html=1;align=center;verticalAlign=middle;resizable=0;points=[];autosize=1;strokeColor=none;fillColor=none;" parent="1" vertex="1">
                    <mxGeometry x="530" y="685" width="30" height="30" as="geometry"/>
                </mxCell>
                <mxCell id="x95TI5AufknZbn7BU47D-123" value="N" style="text;html=1;align=center;verticalAlign=middle;resizable=0;points=[];autosize=1;strokeColor=none;fillColor=none;" parent="1" vertex="1">
                    <mxGeometry x="710" y="685" width="30" height="30" as="geometry"/>
                </mxCell>
                <mxCell id="x95TI5AufknZbn7BU47D-124" value="ID_centro_salud" style="ellipse;whiteSpace=wrap;html=1;fillColor=#330066;gradientColor=#6666FF;strokeColor=#6666FF;gradientDirection=south;" parent="1" vertex="1">
                    <mxGeometry x="80" y="1130" width="80" height="40" as="geometry"/>
                </mxCell>
                <mxCell id="x95TI5AufknZbn7BU47D-125" value="ID_centro_eduacional" style="ellipse;whiteSpace=wrap;html=1;fillColor=#330066;gradientColor=#6666FF;strokeColor=#6666FF;gradientDirection=south;" parent="1" vertex="1">
                    <mxGeometry x="260" y="1130" width="80" height="40" as="geometry"/>
                </mxCell>
                <mxCell id="x95TI5AufknZbn7BU47D-126" value="ID_centro_entretencion" style="ellipse;whiteSpace=wrap;html=1;fillColor=#330066;gradientColor=#6666FF;strokeColor=#6666FF;gradientDirection=south;" parent="1" vertex="1">
                    <mxGeometry x="475" y="1130" width="80" height="40" as="geometry"/>
                </mxCell>
                <mxCell id="x95TI5AufknZbn7BU47D-127" value="ID_centro_seguridad" style="ellipse;whiteSpace=wrap;html=1;fillColor=#330066;gradientColor=#6666FF;strokeColor=#6666FF;gradientDirection=south;" parent="1" vertex="1">
                    <mxGeometry x="660" y="1130" width="80" height="40" as="geometry"/>
                </mxCell>
                <mxCell id="x95TI5AufknZbn7BU47D-128" value="descripcion" style="ellipse;whiteSpace=wrap;html=1;fillColor=#330066;gradientColor=#6666FF;strokeColor=#6666FF;gradientDirection=south;" parent="1" vertex="1">
                    <mxGeometry x="80" y="1180" width="80" height="40" as="geometry"/>
                </mxCell>
                <mxCell id="x95TI5AufknZbn7BU47D-129" value="descripcion" style="ellipse;whiteSpace=wrap;html=1;fillColor=#330066;gradientColor=#6666FF;strokeColor=#6666FF;gradientDirection=south;" parent="1" vertex="1">
                    <mxGeometry x="260" y="1180" width="80" height="40" as="geometry"/>
                </mxCell>
                <mxCell id="x95TI5AufknZbn7BU47D-130" value="descripcion" style="ellipse;whiteSpace=wrap;html=1;fillColor=#330066;gradientColor=#6666FF;strokeColor=#6666FF;gradientDirection=south;" parent="1" vertex="1">
                    <mxGeometry x="475" y="1180" width="80" height="40" as="geometry"/>
                </mxCell>
                <mxCell id="x95TI5AufknZbn7BU47D-131" value="descripcion" style="ellipse;whiteSpace=wrap;html=1;fillColor=#330066;gradientColor=#6666FF;strokeColor=#6666FF;gradientDirection=south;" parent="1" vertex="1">
                    <mxGeometry x="660" y="1180" width="80" height="40" as="geometry"/>
                </mxCell>
                <mxCell id="x95TI5AufknZbn7BU47D-132" value="ID_salud" style="ellipse;whiteSpace=wrap;html=1;fillColor=#330066;gradientColor=#6666FF;strokeColor=#6666FF;gradientDirection=south;" parent="1" vertex="1">
                    <mxGeometry y="800" width="80" height="40" as="geometry"/>
                </mxCell>
                <mxCell id="x95TI5AufknZbn7BU47D-133" value="ID_educacion" style="ellipse;whiteSpace=wrap;html=1;fillColor=#330066;gradientColor=#6666FF;strokeColor=#6666FF;gradientDirection=south;" parent="1" vertex="1">
                    <mxGeometry x="180" y="800" width="80" height="40" as="geometry"/>
                </mxCell>
                <mxCell id="x95TI5AufknZbn7BU47D-134" value="ID_entretencion" style="ellipse;whiteSpace=wrap;html=1;fillColor=#330066;gradientColor=#6666FF;strokeColor=#6666FF;gradientDirection=south;" parent="1" vertex="1">
                    <mxGeometry x="402.5" y="800" width="80" height="40" as="geometry"/>
                </mxCell>
                <mxCell id="x95TI5AufknZbn7BU47D-135" value="ID_seguridad" style="ellipse;whiteSpace=wrap;html=1;fillColor=#330066;gradientColor=#6666FF;strokeColor=#6666FF;gradientDirection=south;" parent="1" vertex="1">
                    <mxGeometry x="590" y="800" width="80" height="40" as="geometry"/>
                </mxCell>
                <mxCell id="x95TI5AufknZbn7BU47D-136" value="1" style="text;html=1;align=center;verticalAlign=middle;resizable=0;points=[];autosize=1;strokeColor=none;fillColor=none;" parent="1" vertex="1">
                    <mxGeometry x="130" y="925" width="30" height="30" as="geometry"/>
                </mxCell>
                <mxCell id="x95TI5AufknZbn7BU47D-137" value="1" style="text;html=1;align=center;verticalAlign=middle;resizable=0;points=[];autosize=1;strokeColor=none;fillColor=none;" parent="1" vertex="1">
                    <mxGeometry x="315" y="920" width="30" height="30" as="geometry"/>
                </mxCell>
                <mxCell id="x95TI5AufknZbn7BU47D-138" value="1" style="text;html=1;align=center;verticalAlign=middle;resizable=0;points=[];autosize=1;strokeColor=none;fillColor=none;" parent="1" vertex="1">
                    <mxGeometry x="530" y="920" width="30" height="30" as="geometry"/>
                </mxCell>
                <mxCell id="x95TI5AufknZbn7BU47D-139" value="1" style="text;html=1;align=center;verticalAlign=middle;resizable=0;points=[];autosize=1;strokeColor=none;fillColor=none;" parent="1" vertex="1">
                    <mxGeometry x="720" y="920" width="30" height="30" as="geometry"/>
                </mxCell>
            </root>
        </mxGraphModel>
    </diagram>
</mxfile>